# xmcd
#
# Track frame offsets:
#	150
#	30226
#	66358
#	102433
#	134868
#	154660
#	195903
#	220434
#	249133
#
# Disc length: 3815 seconds
#
# Revision: 1
# Processed by: cddbd v1.5.1PL0 Copyright (c) Steve Scherf et al.
# Submitted via: audiograbber 1.83.01
#
DISCID=7a0ee509
DTITLE=Jeff Beck - 1975-05-03 - Boston - "Reel To Real"
DYEAR=1900
DGENRE=
TTITLE0=Jeff's Boogie - Constipated Duck
TTITLE1=She's A Woman
TTITLE2=Freeway Jam
TTITLE3=Definitely Maybe
TTITLE4=Superstitious
TTITLE5=Cause We've Ended As Lovers
TTITLE6=Power
TTITLE7=Got The Feeling
TTITLE8=You Know What I Mean
EXTD=
EXTT0=
EXTT1=
EXTT2=
EXTT3=
EXTT4=
EXTT5=
EXTT6=
EXTT7=
EXTT8=
PLAYORDER=
